# xmcd
#
# Track frame offsets:
#	150
#	20645
#	40058
#	62645
#	79701
#	105953
#	124630
#	147829
#	171614
#	208892
#
# Disc length: 3073 seconds
#
# Revision: 1
# Processed by: cddbd v1.4PL0 Copyright (c) Steve Scherf et al.
# Submitted via: audiograbber 1.82.02
#
DISCID=870bff0a
DTITLE=Mick Pini Band - Big Boss Man
DYEAR=1995
DGENRE=Blues
TTITLE0=Big Boss Man
TTITLE1=All My Love
TTITLE2=Key To The Highway (Live)
TTITLE3=Theme For Icarus
TTITLE4=Watch Out
TTITLE5=Mojo Boogie
TTITLE6=What Makes A Woman (Live)
TTITLE7=Gypsy Woman
TTITLE8=You Can Make It
TTITLE9=I Wonder Why (Live)
EXTD=Blumberg Records BRCD 044
EXTT0=
EXTT1=
EXTT2=
EXTT3=
EXTT4=
EXTT5=
EXTT6=
EXTT7=
EXTT8=
EXTT9=
PLAYORDER=
